<svg xmlns="http://www.w3.org/2000/svg" viewBox="0 0 1440 320">
  <defs>
    <linearGradient id="grad1" x1="0%" y1="0%" x2="100%" y2="100%">
      <stop offset="0%" style="stop-color:#102770;stop-opacity:1" />
      <stop offset="100%" style="stop-color:#ffeba7;stop-opacity:0.3" />
    </linearGradient>
  </defs>
  <path fill="url(#grad1)" fill-opacity="0.3" d="M0,96L48,112C96,128,192,160,288,186.7C384,213,480,235,576,213.3C672,192,768,128,864,128C960,128,1056,192,1152,197.3C1248,203,1344,149,1392,122.7L1440,96L1440,320L1392,320C1344,320,1248,320,1152,320C1056,320,960,320,864,320C768,320,672,320,576,320C480,320,384,320,288,320C192,320,96,320,48,320L0,320Z"></path>
</svg>
